<svg viewBox="0 0 15 12" xmlns="http://www.w3.org/2000/svg">
    <path
        d="M12.8333 5.33333H12.1666V2.66667H12.8333V0.666667H14.1666V2.66667H14.8333V5.33333H14.1666V10C14.1666 10.5304 13.9559 11.0391 13.5809 11.4142C13.2058 11.7893 12.6971 12 12.1666 12C11.6362 12 11.1275 11.7893 10.7524 11.4142C10.3774 11.0391 10.1666 10.5304 10.1666 10V7.33333H8.83331V10.6667H9.49998V12H0.833313V10.6667H1.49998V0.666667C1.49998 0.489856 1.57022 0.320286 1.69524 0.195262C1.82027 0.0702379 1.98984 0 2.16665 0H8.16665C8.34346 0 8.51303 0.0702379 8.63805 0.195262C8.76308 0.320286 8.83331 0.489856 8.83331 0.666667V6H10.1666C10.5203 6 10.8594 6.14048 11.1095 6.39052C11.3595 6.64057 11.5 6.97971 11.5 7.33333V10C11.5 10.1768 11.5702 10.3464 11.6952 10.4714C11.8203 10.5964 11.9898 10.6667 12.1666 10.6667C12.3435 10.6667 12.513 10.5964 12.6381 10.4714C12.7631 10.3464 12.8333 10.1768 12.8333 10V5.33333ZM7.49998 10.6667V1.33333H2.83331V10.6667H7.49998ZM5.49998 5.33333H7.49998L4.83331 9.33333V6.66667H2.83331L5.49998 2.66667V5.33333Z"
        fill="#fff" />
</svg>
