<?xml version="1.0" encoding="UTF-8"?>
<svg xmlns="http://www.w3.org/2000/svg" viewBox="0 0 64 64">
    <path
        d="M63.52,38.59c-1.33,6.5-4.64,12.44-9.48,16.99-4.84,4.55-10.96,7.49-17.53,8.42v-6.51c4.86-.87,9.36-3.11,12.98-6.46,3.62-3.35,6.2-7.67,7.44-12.44h6.6Zm-56.43,0c1.22,4.72,3.76,8.99,7.32,12.33,3.56,3.33,7.99,5.59,12.77,6.51v6.53c-6.51-.99-12.56-3.96-17.33-8.49C5.07,50.93,1.81,45.04,.49,38.59H7.08Zm44.21-9.65v6.43h-3.22c-3.3,0-6.47,1.27-8.87,3.54-2.39,2.27-3.82,5.38-3.98,8.68l-.02,.64v3.22h-6.43v-3.22c0-3.3-1.27-6.47-3.54-8.86-2.27-2.39-5.38-3.82-8.68-3.98l-.64-.02h-3.22v-6.43H51.3ZM32,0c16.67,0,30.39,12.69,32,28.94h-6.47c-.78-6.22-3.81-11.93-8.51-16.08-4.7-4.14-10.75-6.43-17.02-6.43s-12.32,2.29-17.02,6.43c-4.7,4.14-7.73,9.86-8.51,16.08H0C1.61,12.69,15.33,0,32,0Z"
        fill="#fff" />
</svg>