<?xml version="1.0" encoding="UTF-8"?>
<svg xmlns="http://www.w3.org/2000/svg" viewBox="0 0 11.67 11.67">
    <path
        d="M5.83,0c3.22,0,5.83,2.61,5.83,5.83s-2.61,5.83-5.83,5.83S0,9.06,0,5.83,2.61,0,5.83,0Zm0,1.17c-1.24,0-2.42,.49-3.3,1.37-.88,.88-1.37,2.06-1.37,3.3s.49,2.42,1.37,3.3c.88,.88,2.06,1.37,3.3,1.37s2.42-.49,3.3-1.37c.88-.88,1.37-2.06,1.37-3.3s-.49-2.42-1.37-3.3c-.88-.88-2.06-1.37-3.3-1.37Zm2.24,1.95c.07-.05,.15-.07,.23-.06,.08,0,.16,.04,.22,.1,.06,.06,.09,.13,.1,.21,0,.08-.02,.16-.06,.23-1.27,1.78-1.97,2.73-2.1,2.86-.16,.16-.39,.26-.62,.26s-.45-.09-.62-.26c-.16-.16-.26-.39-.26-.62s.09-.45,.26-.62c.22-.22,1.17-.92,2.85-2.1Zm.97,2.14c.15,0,.3,.06,.41,.17,.11,.11,.17,.26,.17,.41s-.06,.3-.17,.41c-.11,.11-.26,.17-.41,.17s-.3-.06-.41-.17c-.11-.11-.17-.26-.17-.41s.06-.3,.17-.41c.11-.11,.26-.17,.41-.17Zm-6.42,0c.15,0,.3,.06,.41,.17,.11,.11,.17,.26,.17,.41s-.06,.3-.17,.41c-.11,.11-.26,.17-.41,.17s-.3-.06-.41-.17c-.11-.11-.17-.26-.17-.41s.06-.3,.17-.41c.11-.11,.26-.17,.41-.17Zm1.35-2.1c.11,.11,.17,.26,.17,.41,0,.15-.06,.3-.17,.41-.11,.11-.26,.17-.41,.17-.15,0-.3-.06-.41-.17-.05-.05-.1-.12-.13-.19-.03-.07-.04-.15-.04-.22,0-.08,.02-.15,.04-.22,.03-.07,.07-.14,.13-.19,.11-.11,.26-.17,.41-.17,.08,0,.15,.02,.22,.04,.07,.03,.14,.07,.19,.13Zm1.86-1.11c.15,0,.3,.06,.41,.17,.11,.11,.17,.26,.17,.41s-.06,.3-.17,.41c-.11,.11-.26,.17-.41,.17s-.3-.06-.41-.17c-.11-.11-.17-.26-.17-.41s.06-.3,.17-.41c.11-.11,.26-.17,.41-.17Z"
        fill="#fff" />
</svg>