<svg viewBox="0 0 15 18" xmlns="http://www.w3.org/2000/svg">
    <path
        d="M14.1667 17.3333H0.833333C0.61232 17.3333 0.400358 17.2455 0.244078 17.0892C0.0877973 16.9329 0 16.721 0 16.5V1.49996C0 1.27895 0.0877973 1.06698 0.244078 0.910704C0.400358 0.754423 0.61232 0.666626 0.833333 0.666626H14.1667C14.3877 0.666626 14.5996 0.754423 14.7559 0.910704C14.9122 1.06698 15 1.27895 15 1.49996V16.5C15 16.721 14.9122 16.9329 14.7559 17.0892C14.5996 17.2455 14.3877 17.3333 14.1667 17.3333ZM13.3333 15.6666V2.33329H1.66667V15.6666H13.3333ZM5 3.99996V5.66663C5 6.32967 5.26339 6.96555 5.73223 7.43439C6.20107 7.90323 6.83696 8.16663 7.5 8.16663C8.16304 8.16663 8.79893 7.90323 9.26777 7.43439C9.73661 6.96555 10 6.32967 10 5.66663V3.99996H11.6667V5.66663C11.6667 6.7717 11.2277 7.8315 10.4463 8.6129C9.66488 9.39431 8.60507 9.83329 7.5 9.83329C6.39493 9.83329 5.33512 9.39431 4.55372 8.6129C3.77232 7.8315 3.33333 6.7717 3.33333 5.66663V3.99996H5Z"
        fill="#fff" />
</svg>
