<svg viewBox="0 0 15 12" xmlns="http://www.w3.org/2000/svg">
    <path
        d="M2.16665 1.33333V10.6667H12.8333V1.33333H2.16665ZM1.49998 0H13.5C13.6768 0 13.8464 0.0702379 13.9714 0.195262C14.0964 0.320286 14.1666 0.489856 14.1666 0.666667V11.3333C14.1666 11.5101 14.0964 11.6797 13.9714 11.8047C13.8464 11.9298 13.6768 12 13.5 12H1.49998C1.32317 12 1.1536 11.9298 1.02858 11.8047C0.903551 11.6797 0.833313 11.5101 0.833313 11.3333V0.666667C0.833313 0.489856 0.903551 0.320286 1.02858 0.195262C1.1536 0.0702379 1.32317 0 1.49998 0ZM9.36198 4.52867L8.16665 3.33333H11.5V6.66667L10.3046 5.47133L7.72865 8.04733L6.31465 6.63333L4.42865 8.51867L3.48598 7.576L6.31465 4.74733L7.72865 6.162L9.36198 4.52867Z"
        fill="#fff" />
</svg>
