<?xml version="1.0" encoding="UTF-8"?>
<svg xmlns="http://www.w3.org/2000/svg" viewBox="0 0 8.17 12.83">
    <path
        d="M1.75,2.33c0-.62,.25-1.21,.68-1.65,.44-.44,1.03-.68,1.65-.68s1.21,.25,1.65,.68c.44,.44,.68,1.03,.68,1.65v3.07c.71,.5,1.25,1.21,1.53,2.03,.28,.82,.29,1.71,.03,2.54-.26,.83-.78,1.55-1.48,2.07-.7,.51-1.55,.79-2.42,.79s-1.72-.28-2.42-.79c-.7-.51-1.22-1.24-1.48-2.07-.26-.83-.25-1.72,.03-2.54,.28-.82,.82-1.53,1.53-2.03V2.33Zm.67,4.02c-.51,.35-.89,.86-1.09,1.45-.2,.59-.21,1.22-.02,1.82,.19,.59,.56,1.11,1.06,1.48,.5,.37,1.11,.57,1.73,.57s1.23-.2,1.73-.57c.5-.37,.87-.89,1.06-1.48,.19-.59,.18-1.23-.02-1.82-.2-.59-.58-1.1-1.09-1.45l-.5-.35V2.33c0-.31-.12-.61-.34-.82-.22-.22-.52-.34-.82-.34s-.61,.12-.82,.34-.34,.52-.34,.82v3.67l-.5,.35Zm-.67,2.39H6.42c0,.62-.25,1.21-.68,1.65-.44,.44-1.03,.68-1.65,.68s-1.21-.25-1.65-.68c-.44-.44-.68-1.03-.68-1.65Z"
        fill="#fff" />
</svg>